<mxfile host="app.diagrams.net" agent="Mozilla/5.0 (Windows NT 10.0; Win64; x64) AppleWebKit/537.36 (KHTML, like Gecko) Chrome/123.0.0.0 Safari/537.36" version="25.0.1">
  <diagram name="Page-1" id="ZxUdDtllkQCIYJt_jK6S">
    <mxGraphModel dx="2074" dy="1178" grid="1" gridSize="10" guides="1" tooltips="1" connect="1" arrows="1" fold="1" page="1" pageScale="1" pageWidth="850" pageHeight="1100" math="0" shadow="0">
      <root>
        <mxCell id="0" />
        <mxCell id="1" parent="0" />
        <mxCell id="GdBMuY7kgg5TUPKPSsWF-30" value="" style="rounded=0;whiteSpace=wrap;html=1;" vertex="1" parent="1">
          <mxGeometry width="850" height="1100" as="geometry" />
        </mxCell>
        <mxCell id="GdBMuY7kgg5TUPKPSsWF-1" value="&lt;font style=&quot;font-size: 16px;&quot;&gt;Chat Member #1&lt;/font&gt;" style="swimlane;fontStyle=0;childLayout=stackLayout;horizontal=1;startSize=30;horizontalStack=0;resizeParent=1;resizeParentMax=0;resizeLast=0;collapsible=1;marginBottom=0;whiteSpace=wrap;html=1;" vertex="1" parent="1">
          <mxGeometry x="60" y="330" width="180" height="180" as="geometry" />
        </mxCell>
        <mxCell id="GdBMuY7kgg5TUPKPSsWF-2" value="- INTEGER chat_member_id" style="text;strokeColor=none;fillColor=none;align=left;verticalAlign=middle;spacingLeft=4;spacingRight=4;overflow=hidden;points=[[0,0.5],[1,0.5]];portConstraint=eastwest;rotatable=0;whiteSpace=wrap;html=1;" vertex="1" parent="GdBMuY7kgg5TUPKPSsWF-1">
          <mxGeometry y="30" width="180" height="30" as="geometry" />
        </mxCell>
        <mxCell id="GdBMuY7kgg5TUPKPSsWF-3" value="- INTEGER chat_id" style="text;strokeColor=none;fillColor=none;align=left;verticalAlign=middle;spacingLeft=4;spacingRight=4;overflow=hidden;points=[[0,0.5],[1,0.5]];portConstraint=eastwest;rotatable=0;whiteSpace=wrap;html=1;" vertex="1" parent="GdBMuY7kgg5TUPKPSsWF-1">
          <mxGeometry y="60" width="180" height="30" as="geometry" />
        </mxCell>
        <mxCell id="GdBMuY7kgg5TUPKPSsWF-4" value="- INTEGER user_id" style="text;strokeColor=none;fillColor=none;align=left;verticalAlign=middle;spacingLeft=4;spacingRight=4;overflow=hidden;points=[[0,0.5],[1,0.5]];portConstraint=eastwest;rotatable=0;whiteSpace=wrap;html=1;" vertex="1" parent="GdBMuY7kgg5TUPKPSsWF-1">
          <mxGeometry y="90" width="180" height="30" as="geometry" />
        </mxCell>
        <mxCell id="GdBMuY7kgg5TUPKPSsWF-15" value="- DATETIME chat_last_viewed" style="text;strokeColor=none;fillColor=none;align=left;verticalAlign=middle;spacingLeft=4;spacingRight=4;overflow=hidden;points=[[0,0.5],[1,0.5]];portConstraint=eastwest;rotatable=0;whiteSpace=wrap;html=1;" vertex="1" parent="GdBMuY7kgg5TUPKPSsWF-1">
          <mxGeometry y="120" width="180" height="30" as="geometry" />
        </mxCell>
        <mxCell id="GdBMuY7kgg5TUPKPSsWF-16" value="- BOOLEAN chat_deleted" style="text;strokeColor=none;fillColor=none;align=left;verticalAlign=middle;spacingLeft=4;spacingRight=4;overflow=hidden;points=[[0,0.5],[1,0.5]];portConstraint=eastwest;rotatable=0;whiteSpace=wrap;html=1;" vertex="1" parent="GdBMuY7kgg5TUPKPSsWF-1">
          <mxGeometry y="150" width="180" height="30" as="geometry" />
        </mxCell>
        <mxCell id="GdBMuY7kgg5TUPKPSsWF-5" value="&lt;font style=&quot;font-size: 16px;&quot;&gt;Chat Member #2&lt;/font&gt;" style="swimlane;fontStyle=0;childLayout=stackLayout;horizontal=1;startSize=30;horizontalStack=0;resizeParent=1;resizeParentMax=0;resizeLast=0;collapsible=1;marginBottom=0;whiteSpace=wrap;html=1;" vertex="1" parent="1">
          <mxGeometry x="60" y="560" width="180" height="180" as="geometry" />
        </mxCell>
        <mxCell id="GdBMuY7kgg5TUPKPSsWF-6" value="- INTEGER chat_member_id" style="text;strokeColor=none;fillColor=none;align=left;verticalAlign=middle;spacingLeft=4;spacingRight=4;overflow=hidden;points=[[0,0.5],[1,0.5]];portConstraint=eastwest;rotatable=0;whiteSpace=wrap;html=1;" vertex="1" parent="GdBMuY7kgg5TUPKPSsWF-5">
          <mxGeometry y="30" width="180" height="30" as="geometry" />
        </mxCell>
        <mxCell id="GdBMuY7kgg5TUPKPSsWF-18" value="- INTEGER chat_id" style="text;strokeColor=none;fillColor=none;align=left;verticalAlign=middle;spacingLeft=4;spacingRight=4;overflow=hidden;points=[[0,0.5],[1,0.5]];portConstraint=eastwest;rotatable=0;whiteSpace=wrap;html=1;" vertex="1" parent="GdBMuY7kgg5TUPKPSsWF-5">
          <mxGeometry y="60" width="180" height="30" as="geometry" />
        </mxCell>
        <mxCell id="GdBMuY7kgg5TUPKPSsWF-17" value="- INTEGER user_id" style="text;strokeColor=none;fillColor=none;align=left;verticalAlign=middle;spacingLeft=4;spacingRight=4;overflow=hidden;points=[[0,0.5],[1,0.5]];portConstraint=eastwest;rotatable=0;whiteSpace=wrap;html=1;" vertex="1" parent="GdBMuY7kgg5TUPKPSsWF-5">
          <mxGeometry y="90" width="180" height="30" as="geometry" />
        </mxCell>
        <mxCell id="GdBMuY7kgg5TUPKPSsWF-7" value="- DATETIME chat_last_viewed" style="text;strokeColor=none;fillColor=none;align=left;verticalAlign=middle;spacingLeft=4;spacingRight=4;overflow=hidden;points=[[0,0.5],[1,0.5]];portConstraint=eastwest;rotatable=0;whiteSpace=wrap;html=1;" vertex="1" parent="GdBMuY7kgg5TUPKPSsWF-5">
          <mxGeometry y="120" width="180" height="30" as="geometry" />
        </mxCell>
        <mxCell id="GdBMuY7kgg5TUPKPSsWF-8" value="- BOOLEAN chat_deleted" style="text;strokeColor=none;fillColor=none;align=left;verticalAlign=middle;spacingLeft=4;spacingRight=4;overflow=hidden;points=[[0,0.5],[1,0.5]];portConstraint=eastwest;rotatable=0;whiteSpace=wrap;html=1;" vertex="1" parent="GdBMuY7kgg5TUPKPSsWF-5">
          <mxGeometry y="150" width="180" height="30" as="geometry" />
        </mxCell>
        <mxCell id="GdBMuY7kgg5TUPKPSsWF-23" style="edgeStyle=orthogonalEdgeStyle;rounded=0;orthogonalLoop=1;jettySize=auto;html=1;exitX=0;exitY=0.5;exitDx=0;exitDy=0;entryX=1;entryY=0.5;entryDx=0;entryDy=0;dashed=1;dashPattern=8 8;" edge="1" parent="1" source="GdBMuY7kgg5TUPKPSsWF-9" target="GdBMuY7kgg5TUPKPSsWF-12">
          <mxGeometry relative="1" as="geometry" />
        </mxCell>
        <mxCell id="GdBMuY7kgg5TUPKPSsWF-28" style="edgeStyle=orthogonalEdgeStyle;rounded=0;orthogonalLoop=1;jettySize=auto;html=1;exitX=0.5;exitY=0;exitDx=0;exitDy=0;entryX=1;entryY=0.5;entryDx=0;entryDy=0;dashed=1;dashPattern=8 8;" edge="1" parent="1" source="GdBMuY7kgg5TUPKPSsWF-9" target="GdBMuY7kgg5TUPKPSsWF-27">
          <mxGeometry relative="1" as="geometry" />
        </mxCell>
        <mxCell id="GdBMuY7kgg5TUPKPSsWF-9" value="&lt;font style=&quot;font-size: 20px;&quot;&gt;Website Python Program&lt;/font&gt;" style="rounded=0;whiteSpace=wrap;html=1;" vertex="1" parent="1">
          <mxGeometry x="590" y="475" width="120" height="120" as="geometry" />
        </mxCell>
        <mxCell id="GdBMuY7kgg5TUPKPSsWF-11" value="&lt;font style=&quot;font-size: 16px;&quot;&gt;Chat&lt;/font&gt;" style="swimlane;fontStyle=0;childLayout=stackLayout;horizontal=1;startSize=30;horizontalStack=0;resizeParent=1;resizeParentMax=0;resizeLast=0;collapsible=1;marginBottom=0;whiteSpace=wrap;html=1;" vertex="1" parent="1">
          <mxGeometry x="300" y="490" width="170" height="90" as="geometry" />
        </mxCell>
        <mxCell id="GdBMuY7kgg5TUPKPSsWF-12" value="- INTEGER chat_id" style="text;strokeColor=none;fillColor=none;align=left;verticalAlign=middle;spacingLeft=4;spacingRight=4;overflow=hidden;points=[[0,0.5],[1,0.5]];portConstraint=eastwest;rotatable=0;whiteSpace=wrap;html=1;" vertex="1" parent="GdBMuY7kgg5TUPKPSsWF-11">
          <mxGeometry y="30" width="170" height="30" as="geometry" />
        </mxCell>
        <mxCell id="GdBMuY7kgg5TUPKPSsWF-14" value="- varchar(500) chat_name" style="text;strokeColor=default;fillColor=none;align=left;verticalAlign=middle;spacingLeft=4;spacingRight=4;overflow=hidden;points=[[0,0.5],[1,0.5]];portConstraint=eastwest;rotatable=0;whiteSpace=wrap;html=1;" vertex="1" parent="GdBMuY7kgg5TUPKPSsWF-11">
          <mxGeometry y="60" width="170" height="30" as="geometry" />
        </mxCell>
        <mxCell id="GdBMuY7kgg5TUPKPSsWF-19" style="edgeStyle=orthogonalEdgeStyle;rounded=0;orthogonalLoop=1;jettySize=auto;html=1;exitX=0;exitY=0.5;exitDx=0;exitDy=0;entryX=1;entryY=0.5;entryDx=0;entryDy=0;startArrow=classic;startFill=1;endArrow=none;endFill=0;" edge="1" parent="1" source="GdBMuY7kgg5TUPKPSsWF-12" target="GdBMuY7kgg5TUPKPSsWF-3">
          <mxGeometry relative="1" as="geometry" />
        </mxCell>
        <mxCell id="GdBMuY7kgg5TUPKPSsWF-20" style="edgeStyle=orthogonalEdgeStyle;rounded=0;orthogonalLoop=1;jettySize=auto;html=1;exitX=0;exitY=0.5;exitDx=0;exitDy=0;entryX=1;entryY=0.5;entryDx=0;entryDy=0;startArrow=classic;startFill=1;endArrow=none;endFill=0;" edge="1" parent="1" source="GdBMuY7kgg5TUPKPSsWF-12" target="GdBMuY7kgg5TUPKPSsWF-18">
          <mxGeometry relative="1" as="geometry" />
        </mxCell>
        <mxCell id="GdBMuY7kgg5TUPKPSsWF-24" value="&lt;font style=&quot;font-size: 14px;&quot;&gt;3) The program checks for chat_deleted in every Chat Member inside a Chat. If all Chat Members in a Chat have the chat deleted, then the Chat Members, Chat, and Messages will all be removed from the database.&lt;/font&gt;" style="text;html=1;align=center;verticalAlign=middle;whiteSpace=wrap;rounded=0;" vertex="1" parent="1">
          <mxGeometry x="420" y="640" width="210" height="30" as="geometry" />
        </mxCell>
        <mxCell id="GdBMuY7kgg5TUPKPSsWF-26" style="edgeStyle=orthogonalEdgeStyle;rounded=0;orthogonalLoop=1;jettySize=auto;html=1;exitX=0.5;exitY=1;exitDx=0;exitDy=0;entryX=0.5;entryY=0;entryDx=0;entryDy=0;dashed=1;dashPattern=8 8;" edge="1" parent="1" source="GdBMuY7kgg5TUPKPSsWF-25" target="GdBMuY7kgg5TUPKPSsWF-1">
          <mxGeometry relative="1" as="geometry" />
        </mxCell>
        <mxCell id="GdBMuY7kgg5TUPKPSsWF-25" value="&lt;font style=&quot;font-size: 23px;&quot;&gt;User&lt;/font&gt;" style="whiteSpace=wrap;html=1;aspect=fixed;" vertex="1" parent="1">
          <mxGeometry x="90" y="110" width="120" height="120" as="geometry" />
        </mxCell>
        <mxCell id="GdBMuY7kgg5TUPKPSsWF-27" value="&lt;font style=&quot;font-size: 14px;&quot;&gt;1) A user deletes a chat and changes the value of chat_deleted to true and hides the chat for the user&lt;/font&gt;" style="text;html=1;align=center;verticalAlign=middle;whiteSpace=wrap;rounded=0;" vertex="1" parent="1">
          <mxGeometry x="150" y="270" width="140" height="30" as="geometry" />
        </mxCell>
        <mxCell id="GdBMuY7kgg5TUPKPSsWF-29" value="&lt;font style=&quot;font-size: 14px;&quot;&gt;2) The program detects the change by the user&lt;/font&gt;" style="text;html=1;align=center;verticalAlign=middle;whiteSpace=wrap;rounded=0;" vertex="1" parent="1">
          <mxGeometry x="425" y="230" width="110" height="30" as="geometry" />
        </mxCell>
      </root>
    </mxGraphModel>
  </diagram>
</mxfile>
